<svg width="12" height="12" viewBox="0 0 12 12" fill="none" xmlns="http://www.w3.org/2000/svg">
<path d="M5.75 7.90625C5.17813 7.90625 4.62968 7.67907 4.2253 7.2747C3.82093 6.87032 3.59375 6.32187 3.59375 5.75C3.59375 5.17813 3.82093 4.62968 4.2253 4.2253C4.62968 3.82093 5.17813 3.59375 5.75 3.59375C6.32187 3.59375 6.87032 3.82093 7.2747 4.2253C7.67907 4.62968 7.90625 5.17813 7.90625 5.75C7.90625 6.32187 7.67907 6.87032 7.2747 7.2747C6.87032 7.67907 6.32187 7.90625 5.75 7.90625ZM5.75 8.625C6.5125 8.625 7.24377 8.3221 7.78293 7.78293C8.3221 7.24377 8.625 6.5125 8.625 5.75C8.625 4.9875 8.3221 4.25624 7.78293 3.71707C7.24377 3.1779 6.5125 2.875 5.75 2.875C4.9875 2.875 4.25624 3.1779 3.71707 3.71707C3.1779 4.25624 2.875 4.9875 2.875 5.75C2.875 6.5125 3.1779 7.24377 3.71707 7.78293C4.25624 8.3221 4.9875 8.625 5.75 8.625ZM5.75 0C5.84531 0 5.93672 0.0378626 6.00412 0.105259C6.07151 0.172654 6.10938 0.264063 6.10938 0.359375V1.79688C6.10938 1.89219 6.07151 1.9836 6.00412 2.05099C5.93672 2.11839 5.84531 2.15625 5.75 2.15625C5.65469 2.15625 5.56328 2.11839 5.49588 2.05099C5.42849 1.9836 5.39062 1.89219 5.39062 1.79688V0.359375C5.39062 0.264063 5.42849 0.172654 5.49588 0.105259C5.56328 0.0378626 5.65469 0 5.75 0ZM5.75 9.34375C5.84531 9.34375 5.93672 9.38161 6.00412 9.44901C6.07151 9.5164 6.10938 9.60781 6.10938 9.70312V11.1406C6.10938 11.2359 6.07151 11.3273 6.00412 11.3947C5.93672 11.4621 5.84531 11.5 5.75 11.5C5.65469 11.5 5.56328 11.4621 5.49588 11.3947C5.42849 11.3273 5.39062 11.2359 5.39062 11.1406V9.70312C5.39062 9.60781 5.42849 9.5164 5.49588 9.44901C5.56328 9.38161 5.65469 9.34375 5.75 9.34375ZM11.5 5.75C11.5 5.84531 11.4621 5.93672 11.3947 6.00412C11.3273 6.07151 11.2359 6.10938 11.1406 6.10938H9.70312C9.60781 6.10938 9.5164 6.07151 9.44901 6.00412C9.38161 5.93672 9.34375 5.84531 9.34375 5.75C9.34375 5.65469 9.38161 5.56328 9.44901 5.49588C9.5164 5.42849 9.60781 5.39062 9.70312 5.39062H11.1406C11.2359 5.39062 11.3273 5.42849 11.3947 5.49588C11.4621 5.56328 11.5 5.65469 11.5 5.75ZM2.15625 5.75C2.15625 5.84531 2.11839 5.93672 2.05099 6.00412C1.9836 6.07151 1.89219 6.10938 1.79688 6.10938H0.359375C0.264063 6.10938 0.172654 6.07151 0.105259 6.00412C0.0378626 5.93672 0 5.84531 0 5.75C0 5.65469 0.0378626 5.56328 0.105259 5.49588C0.172654 5.42849 0.264063 5.39062 0.359375 5.39062H1.79688C1.89219 5.39062 1.9836 5.42849 2.05099 5.49588C2.11839 5.56328 2.15625 5.65469 2.15625 5.75ZM9.81597 1.68403C9.88334 1.75142 9.92119 1.84282 9.92119 1.93811C9.92119 2.0334 9.88334 2.12479 9.81597 2.19219L8.79966 3.20922C8.76624 3.24258 8.72659 3.26904 8.68295 3.28708C8.63931 3.30512 8.59254 3.31439 8.54532 3.31436C8.44996 3.31429 8.35853 3.27634 8.29114 3.20886C8.25777 3.17545 8.23132 3.13579 8.21328 3.09215C8.19524 3.04851 8.18597 3.00175 8.186 2.95453C8.18607 2.85916 8.22402 2.76773 8.2915 2.70034L9.30781 1.68403C9.37521 1.61666 9.4666 1.57881 9.56189 1.57881C9.65718 1.57881 9.74858 1.61666 9.81597 1.68403ZM3.2085 8.2915C3.27587 8.35889 3.31372 8.45028 3.31372 8.54558C3.31372 8.64087 3.27587 8.73226 3.2085 8.79966L2.19219 9.81597C2.12441 9.88143 2.03363 9.91765 1.9394 9.91684C1.84518 9.91602 1.75504 9.87822 1.68841 9.81159C1.62178 9.74496 1.58398 9.65482 1.58316 9.5606C1.58235 9.46637 1.61857 9.37559 1.68403 9.30781L2.70034 8.2915C2.76774 8.22413 2.85913 8.18628 2.95442 8.18628C3.04972 8.18628 3.14111 8.22413 3.2085 8.2915ZM9.81597 9.81597C9.74858 9.88334 9.65718 9.92119 9.56189 9.92119C9.4666 9.92119 9.37521 9.88334 9.30781 9.81597L8.2915 8.79966C8.22604 8.73188 8.18981 8.6411 8.19063 8.54687C8.19145 8.45264 8.22925 8.36251 8.29588 8.29588C8.36251 8.22925 8.45264 8.19145 8.54687 8.19063C8.6411 8.18981 8.73188 8.22604 8.79966 8.2915L9.81597 9.30781C9.88334 9.37521 9.92119 9.4666 9.92119 9.56189C9.92119 9.65718 9.88334 9.74858 9.81597 9.81597ZM3.2085 3.20922C3.14111 3.27659 3.04972 3.31444 2.95442 3.31444C2.85913 3.31444 2.76774 3.27659 2.70034 3.20922L1.68403 2.19219C1.64971 2.15904 1.62233 2.11938 1.60349 2.07554C1.58466 2.03169 1.57475 1.98453 1.57433 1.93682C1.57392 1.8891 1.58301 1.84178 1.60108 1.79761C1.61915 1.75344 1.64583 1.71332 1.67958 1.67958C1.71332 1.64583 1.75344 1.61915 1.79761 1.60108C1.84178 1.58301 1.8891 1.57392 1.93682 1.57433C1.98453 1.57475 2.03169 1.58466 2.07554 1.60349C2.11938 1.62233 2.15904 1.64971 2.19219 1.68403L3.2085 2.70034C3.24197 2.73373 3.26852 2.77338 3.28664 2.81704C3.30475 2.86071 3.31408 2.90751 3.31408 2.95478C3.31408 3.00205 3.30475 3.04886 3.28664 3.09252C3.26852 3.13618 3.24197 3.17584 3.2085 3.20922Z" fill="black"/>
</svg>
