<svg width="12" height="12" viewBox="0 0 12 12" fill="none" xmlns="http://www.w3.org/2000/svg">
<path d="M4.3129 0.199636C4.38289 0.284979 4.42576 0.389297 4.43601 0.499188C4.44626 0.609078 4.42341 0.719523 4.37041 0.816333C3.9546 1.57919 3.73756 2.43444 3.73929 3.30325C3.73929 6.19338 6.09557 8.53367 8.99959 8.53367C9.37913 8.53319 9.74644 8.49485 10.1015 8.41867C10.2102 8.39543 10.3232 8.40456 10.4267 8.44493C10.5302 8.4853 10.6196 8.55514 10.6838 8.64579C10.7517 8.74014 10.7864 8.85436 10.7823 8.97053C10.7783 9.0867 10.7358 9.19824 10.6615 9.28765C10.0977 9.98009 9.38645 10.538 8.57965 10.9207C7.77285 11.3035 6.8908 11.5014 5.99781 11.5C2.68406 11.5 0 8.83052 0 5.54147C0 3.06605 1.51958 0.942835 3.68322 0.0429461C3.79096 -0.00283889 3.91068 -0.0123131 4.02428 0.0159553C4.13788 0.0442238 4.23919 0.108699 4.3129 0.199636ZM3.49201 0.942116C2.66011 1.3884 1.96465 2.0517 1.47952 2.86153C0.994397 3.67136 0.737728 4.59747 0.736788 5.54147C0.736788 8.43088 3.09379 10.7712 5.99781 10.7712C6.6932 10.7722 7.38191 10.6354 8.0241 10.3687C8.6663 10.102 9.24925 9.71059 9.73925 9.21721C9.49677 9.2474 9.25022 9.26249 8.99959 9.26249C5.68584 9.26249 3.0025 6.59301 3.0025 3.30396C3.0025 2.46517 3.17645 1.66663 3.49201 0.942116Z" fill="black"/>
<path d="M7.75894 2.26244C7.76925 2.23131 7.7891 2.20422 7.81569 2.18503C7.84227 2.16583 7.87423 2.15549 7.90702 2.15549C7.93981 2.15549 7.97177 2.16583 7.99835 2.18503C8.02493 2.20422 8.04479 2.23131 8.05509 2.26244L8.33328 3.09764C8.45763 3.46996 8.74947 3.76177 9.12182 3.88612L9.95708 4.16428C9.98821 4.17459 10.0153 4.19444 10.0345 4.22102C10.0537 4.2476 10.064 4.27955 10.064 4.31234C10.064 4.34513 10.0537 4.37709 10.0345 4.40367C10.0153 4.43025 9.98821 4.4501 9.95708 4.46041L9.12182 4.73857C8.93807 4.79955 8.7711 4.90258 8.6342 5.03947C8.4973 5.17636 8.39426 5.34332 8.33328 5.52705L8.05509 6.36225C8.04479 6.39338 8.02493 6.42046 7.99835 6.43966C7.97177 6.45886 7.93981 6.46919 7.90702 6.46919C7.87423 6.46919 7.84227 6.45886 7.81569 6.43966C7.7891 6.42046 7.76925 6.39338 7.75894 6.36225L7.48076 5.52705C7.41978 5.34332 7.31673 5.17636 7.17983 5.03947C7.04294 4.90258 6.87596 4.79955 6.69222 4.73857L5.85695 4.46041C5.82582 4.4501 5.79873 4.43025 5.77953 4.40367C5.76033 4.37709 5.75 4.34513 5.75 4.31234C5.75 4.27955 5.76033 4.2476 5.77953 4.22102C5.79873 4.19444 5.82582 4.17459 5.85695 4.16428L6.69222 3.88612C6.87596 3.82514 7.04294 3.7221 7.17983 3.58522C7.31673 3.44833 7.41978 3.28137 7.48076 3.09764L7.75894 2.26244ZM9.96499 0.0709356C9.97209 0.0504698 9.98538 0.0327233 10.003 0.0201635C10.0207 0.00760359 10.0418 0.000854492 10.0635 0.000854492C10.0851 0.000854492 10.1063 0.00760359 10.1239 0.0201635C10.1416 0.0327233 10.1549 0.0504698 10.1619 0.0709356L10.3474 0.627256C10.4301 0.875948 10.6249 1.07073 10.8736 1.15339L11.4299 1.33883C11.4504 1.34592 11.4682 1.35922 11.4807 1.37687C11.4933 1.39452 11.5 1.41564 11.5 1.4373C11.5 1.45896 11.4933 1.48008 11.4807 1.49773C11.4682 1.51538 11.4504 1.52867 11.4299 1.53577L10.8736 1.72121C10.7511 1.76218 10.6398 1.83103 10.5485 1.92233C10.4572 2.01363 10.3884 2.12489 10.3474 2.24734L10.1619 2.80366C10.1549 2.82413 10.1416 2.84188 10.1239 2.85444C10.1063 2.867 10.0851 2.87375 10.0635 2.87375C10.0418 2.87375 10.0207 2.867 10.003 2.85444C9.98538 2.84188 9.97209 2.82413 9.96499 2.80366L9.77954 2.24734C9.73856 2.12489 9.66971 2.01363 9.5784 1.92233C9.48709 1.83103 9.37582 1.76218 9.25336 1.72121L8.697 1.53577C8.67653 1.52867 8.65878 1.51538 8.64622 1.49773C8.63366 1.48008 8.62691 1.45896 8.62691 1.4373C8.62691 1.41564 8.63366 1.39452 8.64622 1.37687C8.65878 1.35922 8.67653 1.34592 8.697 1.33883L9.25336 1.15339C9.50207 1.07073 9.69687 0.875948 9.77954 0.627256L9.96499 0.0709356Z" fill="black"/>
</svg>
